<svg version="1" xmlns="http://www.w3.org/2000/svg" width="249.333" height="249.333" viewBox="0 0 187.000000 187.000000"><path d="M46.1 12.7C42.5 15.8.7 89.1.7 92.6c-.1 4.4 43.2 79.6 46.8 81.2 1.9.9 15.4 1.2 47 1.2h44.4l2.5-2.3c3.9-3.4 45.6-76.6 45.6-79.9 0-2.9-41.1-75.1-45.3-79.6l-2-2.2H93.9c-42 0-45.8.1-47.8 1.7zM76.7 67c8.6 3.8 16.3 7 17.1 7 .8 0 8-3 16.1-6.6 8-3.6 15.2-6.8 15.9-7.1 1-.4 1.2 1.3 1 7.8l-.3 8.3-16.4 7.3L93.8 91l-9-4c-5-2.2-9.5-4-10-4s-.8 1-.6 2.2c.2 1.7 2.4 3.1 10 6.4l9.6 4.3 16.4-7.3 16.3-7.3.3 18.5c.1 10.2-.1 18.9-.5 19.3-.5.4-7.9 4-16.7 7.8L93.8 134l-16.7-7.4-16.6-7.4-.3-8.1c-.2-4.4 0-8.1.3-8.1s7.6 3.2 16.3 7.1c10.7 4.7 16.5 6.8 18.2 6.5 1.4-.3 6-2.1 10.3-4.1 6.7-3.1 7.7-3.9 7.7-6.1 0-1.7-.4-2.4-1.2-2.1-.7.3-5 2.2-9.6 4.3l-8.2 3.7-16.8-7.4-16.7-7.5-.3-18.7c-.1-10.3 0-18.7.3-18.7s7.6 3.1 16.2 7z"/></svg>