<?xml version="1.0" encoding="utf-8"?><svg version="1.1" id="Calque_1" xmlns="http://www.w3.org/2000/svg" x="0" y="0" viewBox="0 0 732 161.8" xml:space="preserve"><style>.st1{fill:#213364}</style><linearGradient id="SVGID_1_" gradientUnits="userSpaceOnUse" x1="5.063" y1="81.192" x2="183.143" y2="81.192"><stop offset="0" stop-color="#182c3a"/><stop offset="1" stop-color="#213364"/></linearGradient><path d="M134.2 2.9H54c-3.2 0-6.1 1.7-7.7 4.4L6.2 76.8c-1.6 2.7-1.6 6.1 0 8.9l40.1 69.4c1.6 2.7 4.5 4.4 7.7 4.4h80.2c3.2 0 6.1-1.7 7.7-4.4L182 85.6c1.6-2.7 1.6-6.1 0-8.9L141.9 7.3c-1.6-2.7-4.5-4.4-7.7-4.4z" fill="url(#SVGID_1_)"/><path class="st1" d="M255 74.9h-39.9V52.3h15.2v8.8h9.4V49.6l-24.1-18.2V2.3h38.9v21.6h-13.8v-7.7h-9.9v9.5L255 43.8v31.1zM304.8 16.1h-13.7v58.8h-15.3V16.1h-14.2V2.3h43.2v13.8zM326.2 74.9H311V13.8l11.7-11.5h31.7v72.6h-15.2V51h-12.9v23.9zm13-37.7V16.1h-12.9v21.1h12.9zM389.4 74.9l-9-26.2h-4v26.2h-15.2V12.5l11-10.2h31.1v46.1h-8.2l9.6 26.5h-15.3zM388.1 35V16.1h-11.7V35h11.7zM461.3 61.1v-8.8h15.3v12.5l-10 10h-32.7V12.3l10.8-10h31.9v27.4h-15.3V16.1H449v45h12.3zM507.8 61.1v13.8h-25.2V61.1h5v-45h-5V2.3h25.2v13.8h-5v45.1h5zM557.6 16.1h-13.7v58.8h-15.3V16.1h-14.2V2.3h43.2v13.8zM589 61.1v13.8h-25.2V61.1h5v-45h-5V2.3H589v13.8h-5v45.1h5zM595.5 74.9v-12l21.9-46.7H597V2.3h33.6l4.5 11.5-21.7 47.3h20.9v13.8h-38.8zM641.7 2.3h35.2v13.8h-20.2v14h19.2v13.6h-19v17.5h20.5V75h-35.7V2.3zM712.8 44V2.3h14.4v72.6h-15.1l-14.9-41.7v41.7H683V2.3h15.1L712.8 44zM243.4 145.7v-11.2h-6.2v-12.9h21.2v37.8H215V86.9h41v13.8h-25.6v45h13zM280.7 159.4h-15.3V98.3l11.7-11.5h31.7v72.6h-15.2v-23.8h-12.9v23.8zm13-37.6v-21.1h-12.9v21.1h12.9zM315.6 159.4V86.9h15.2v58.8h21.3v13.8h-36.5zM373.9 159.4h-15.3V98.3l11.7-11.5H402v72.6h-15.2v-23.8h-13v23.8zm13-37.6v-21.1h-13v21.1h13zM426.3 159.4h-16.4l13.2-38.1-10.9-34.5h15.6l6.4 21.4 6.5-21.4h15.6l-11 34.5 13.2 38.1H442l-7.9-22.5-7.8 22.5zM490.2 86.9H506l-24.5 72.6h-15.9l9.4-27.8-15.2-44.8h15.7l7 22.5 7.7-22.5z"/><path fill="#fff" d="M94.1 79.5L126 65.2V49.5L94.1 63.7 62.2 49.5V85.6l31.9 14.2 18.8-8.3v5l-18.8 8.4-31.9-14.2v15.7l31.9 14.2 31.9-14.2V69.9L94.1 84.1l-18.8-8.4v-4.6z"/></svg>